<svg xmlns="http://www.w3.org/2000/svg" xmlns:xlink="http://www.w3.org/1999/xlink" xml:space="preserve" style="shape-rendering:geometricPrecision;text-rendering:geometricPrecision;image-rendering:optimizeQuality;" viewBox="0 0 100 125" x="0px" y="0px" fill-rule="evenodd" clip-rule="evenodd"><defs><style type="text/css">
   
    .fil0 {fill:black}
   
  </style></defs><g><path class="fil0" d="M66.3324 23.5289c3.85397,0.302365 6.15595,0.45709 6.6969,4.51303 -0.703943,1.70553 -1.15867,3.85869 0.870479,5.81461l19.3773 4.68193c1.63938,-1.06418 1.88742,-3.51735 1.63938,-5.72249 -1.0004,-4.55673 -1.66301,-10.7351 -4.31578,-12.7808 -10.2946,-7.93353 -70.9069,-7.93235 -81.2014,0 -2.65396,2.0445 -3.31656,8.22408 -4.31696,12.7808 -0.248033,2.20514 0.00118111,4.6583 1.64056,5.72249l19.3761 -4.68193c2.02915,-1.95592 1.57442,-4.10909 0.87166,-5.81461 0.539768,-4.05594 2.84175,-4.21066 6.6969,-4.51303l32.6648 0zm-23.9943 10.8591l0 -7.08667 -11.8749 0 0 10.343 -18.1962 31.029 0 17.2371 75.4648 0 0 -17.2371 -18.195 -31.029 0 -10.343 -11.8761 0 0 7.08667 -15.3226 0zm-7.66069 9.80205l7.27801 0 0 5.55477 -7.27801 0 0 -5.55477zm23.3671 17.0375l7.27801 0 0 5.55359 -7.27801 0 0 -5.55359zm0 -8.51936l7.27801 0 0 5.55477 -7.27801 0 0 -5.55477zm-11.6836 8.51936l7.27801 0 0 5.55359 -7.27801 0 0 -5.55359zm0 -8.51936l7.27801 0 0 5.55477 -7.27801 0 0 -5.55477zm-11.6836 8.51936l7.27801 0 0 5.55359 -7.27801 0 0 -5.55359zm0 -8.51936l7.27801 0 0 5.55477 -7.27801 0 0 -5.55477zm23.3671 -8.51818l7.27801 0 0 5.55477 -7.27801 0 0 -5.55477zm-11.6836 0l7.27801 0 0 5.55477 -7.27801 0 0 -5.55477z"/></g><text x="0" y="115" fill="#000000" font-size="5px" font-weight="bold" font-family="'Helvetica Neue', Helvetica, Arial-Unicode, Arial, Sans-serif">Created by Aulia</text><text x="0" y="120" fill="#000000" font-size="5px" font-weight="bold" font-family="'Helvetica Neue', Helvetica, Arial-Unicode, Arial, Sans-serif">from the Noun Project</text></svg>